PathFileType	4	(X/Y/Z)	C:/Users/beibeiliu/ov580/test_trc/User1\sequence.30_training_dense_left.trc
DataRate	CameraRate	NumFrames	NumMarkers	Units	OrigDataRate	OrigDataStartFrame	OrigNumFrames
120	120	9	19	mm	120	171	227
Frame#	Time	ThumbCMC			ThumbMCP			ThumbIP			ThumbTip			IndexMCP			IndexPIP			IndexTip			MiddleMCP			MiddlePIP			MiddleTip			RingMCP			RingPIP			RingTip			PinkyMCP			PinkyPIP			PinkyTip			BackHand1			BackHand2			BackHand3	
		X0	Y0	Z0	X1	Y1	Z1	X2	Y2	Z2	X3	Y3	Z3	X4	Y4	Z4	X5	Y5	Z5	X6	Y6	Z6	X7	Y7	Z7	X8	Y8	Z8	X9	Y9	Z9	X10	Y10	Z10	X11	Y11	Z11	X12	Y12	Z12	X13	Y13	Z13	X14	Y14	Z14	X15	Y15	Z15	X16	Y16	Z16	X17	Y17	Z17	X18	Y18	Z18	
170	1.41667	-145.911	26.4679	43.9006	-154.781	46.8786	26.0834	-161.176	55.7548	4.1179	-169.892	69.5866	-14.4446	-116.361	26.1838	-40.2453	-91.0595	41.7725	-43.8928	-69.1325	52.0448	-19.8442	-115.906	-13.8906	-49.5083	-110.821	-3.99789	-76.3791	-94.5855	-1.69637	-100.248	-101.546	-32.8665	-39.5808	-98.2818	-31.0912	-67.0955	-89.617	-27.5087	-88.0161	-76.2763	-43.3156	-11.1474	-68.9882	-47.0664	-27.8285	-61.9347	-59.5358	-51.5544	-110.875	-35.0783	21.5033	-118.48	-37.2533	53.6693	-140.694	-11.7364	32.3471	
171	1.425	-146.284	27.0813	46.2163	-150.932	45.1739	24.9936	-158.251	54.5603	-0.420874	-165.835	67.9682	-12.273	-115.642	27.0756	-39.3054	-88.6652	39.2742	-40.6057	-68.8821	49.8333	-13.8537	-116.619	-11.8083	-48.6204	-108.648	-3.338	-71.5456	-92.658	4.37079	-100.86	-105.753	-31.0453	-36.2889	-100.714	-32.7477	-61.6797	-91.2846	-28.9882	-91.2237	-80.8632	-44.2752	-9.21553	-74.2531	-53.1557	-27.8561	-72.1812	-63.929	-46.0395	-113.065	-35.6562	17.7707	-122.095	-36.1595	55.7835	-143.058	-7.1176	32.6813	
172	1.43333	-144.429	29.0421	46.7801	-152.026	49.9933	27.0601	-157.229	56.9019	0.327841	-165.233	74.0631	-12.3655	-117.987	26.3373	-35.8399	-86.8991	40.1092	-39.011	-70.755	50.1965	-12.0953	-115.16	-10.0898	-45.5597	-106.451	1.33292	-72.2268	-87.5917	9.33784	-100.252	-107.639	-29.4586	-39.2335	-101.901	-30.4354	-65.5958	-91.284	-29.2539	-88.7609	-83.1444	-47.0757	-7.71937	-79.0319	-57.1006	-27.5372	-79.5687	-73.428	-46.4528	-118.368	-31.2128	18.2544	-123.041	-36.0678	52.6942	-141.213	-9.60307	34.0173	
173	1.44167	-141.111	28.7863	46.0299	-146.355	48.9579	23.7914	-155.331	62.0678	-0.894231	-158.129	74.2367	-14.6694	-115.198	26.5484	-35.3045	-82.2274	42.8263	-35.2579	-66.8046	42.9191	-7.29169	-115.67	-7.07497	-46.1162	-104.012	3.59906	-74.0869	-86.0523	13.608	-99.1674	-108.364	-27.2991	-35.4748	-102.678	-31.6455	-62.8344	-98.1823	-25.2375	-89.7137	-89.9368	-47.2168	-10.2283	-85.9834	-57.3416	-28.003	-88.3163	-74.3777	-44.9867	-122.653	-30.2411	20.8151	-125.294	-32.4925	50.313	-145.392	-3.47267	30.6049	
174	1.45	-138.356	32.5162	46.2766	-143.012	51.447	24.4377	-149.781	66.5243	-0.3388	-150.026	76.2452	-15.8134	-114.833	32.4937	-33.9321	-78.898	39.7948	-33.9678	-63.9346	42.4439	-2.72742	-115.522	-3.32019	-47.1492	-100.611	5.39955	-74.1091	-84.2964	11.2937	-95.0407	-108.731	-27.8356	-38.8923	-106.991	-23.4188	-65.5491	-100.664	-24.0403	-89.9739	-94.4158	-47.353	-11.3485	-94.3844	-54.6373	-28.6299	-98.2934	-70.4495	-46.9438	-123.55	-31.7746	17.4126	-128.885	-32.7537	50.8464	-144.66	-0.293803	32.2748	
175	1.45833	-133.29	36.6689	51.3574	-137.989	60.4557	27.8822	-138.641	70.9514	3.45914	-142.264	88.9987	-9.29157	-107.056	32.667	-33.7023	-76.7025	42.2342	-34.9812	-57.9342	41.3625	-3.69677	-114.818	1.43305	-48.3019	-101.214	7.26711	-70.0236	-79.9297	15.3955	-96.3579	-112.988	-21.7296	-39.1481	-110.504	-17.9778	-66.1245	-105.933	-18.4608	-87.718	-101.53	-46.8605	-14.2326	-101.777	-52.542	-30.2484	-111.766	-64.4703	-49.1235	-126.979	-24.8614	21.4998	-133.184	-26.3679	50.0101	-143.844	5.7462	33.8303	
176	1.46667	-126.103	41.9632	50.2165	-125.872	65.6693	32.2974	-126.36	78.8784	9.97172	-127.569	95.567	-1.91217	-101.287	36.4992	-31.1498	-66.0676	35.6349	-29.8308	-50.8966	32.2496	-3.46317	-113.072	8.94367	-46.9559	-98.475	15.99	-67.1861	-77.0676	20.8349	-94.5264	-116.584	-16.3428	-39.128	-114.392	-15.5811	-64.3497	-110.448	-10.7554	-92.0526	-110.983	-38.5199	-17.2309	-112.092	-50.4851	-34.8198	-123.997	-57.3348	-51.0026	-131.36	-21.1604	19.5222	-137.639	-23.1082	49.6475	-142.859	14.1399	32.0213	
177	1.475	-117.002	47.1393	57.1483	-111.212	68.6757	38.0372	-110.887	82.0994	18.497	-111.093	100.202	4.75549	-90.3993	42.8002	-29.0818	-60.0186	32.9881	-29.3885	-42.6745	24.0474	0.454744	-110.93	16.436	-41.8041	-91.5105	20.206	-67.8426	-71.7629	20.0229	-88.6139	-120.38	-4.50221	-39.0706	-117.463	-6.00092	-62.6479	-113.011	-2.10988	-91.4936	-117.859	-35.9353	-13.4051	-122.136	-41.7682	-32.7935	-137.259	-46.4595	-52.3402	-135.25	-13.2781	16.3138	-140.77	-18.668	52.73	-139.495	19.7541	37.1319	
178	1.48333	-104.877	46.0828	62.2919	-96.4879	62.3016	42.6795	-93.965	85.5672	24.8485	-89.249	101.715	19.1939	-83.6682	43.3978	-22.116	-54.21	26.7863	-28.99	-33.9897	12.3442	-1.13114	-102.196	26.6527	-41.6753	-83.3031	25.8168	-63.2999	-63.3732	22.0797	-84.7523	-120.599	3.4303	-35.6123	-117.896	1.40712	-63.9556	-111.648	8.14065	-87.914	-126.534	-28.3787	-17.0678	-129.609	-28.2659	-31.7417	-146.55	-26.9888	-50.7728	-135.935	-6.96904	18.5562	-143.729	-6.59847	50.6272	-132.756	28.8779	40.9623	
